<svg width="24" height="22" viewBox="0 0 24 22" fill="none" xmlns="http://www.w3.org/2000/svg">
<path d="M12 21.5H11.9405C11.7667 21.487 11.6014 21.4196 11.468 21.3075C11.4314 21.2765 11.3978 21.2421 11.3676 21.2048L0.529316 8.28517C0.444803 8.18859 0.385133 8.07286 0.355483 7.948C0.355483 7.93283 0.348483 7.91767 0.344983 7.9025C0.311932 7.70706 0.353576 7.50633 0.461649 7.34017L0.483816 7.3075L4.71882 1.31667C4.73398 1.29333 4.74915 1.27233 4.76665 1.25367C4.89053 1.10645 5.06241 1.00771 5.25198 0.974833C5.28443 0.969888 5.31717 0.967159 5.34998 0.966667L11.9416 0.5H12H12.0571L18.65 0.966667C18.6864 0.968731 18.7227 0.97341 18.7585 0.980667C18.9665 1.01939 19.1514 1.13734 19.2741 1.30967L23.5173 7.311C23.5261 7.32263 23.5343 7.3347 23.5418 7.34717C23.6389 7.4959 23.6829 7.67311 23.6666 7.85C23.6617 7.89534 23.6531 7.94021 23.641 7.98417C23.6091 8.09602 23.5525 8.19928 23.4753 8.28633L12.6335 21.2037C12.6154 21.2263 12.596 21.2477 12.5751 21.2678C12.507 21.334 12.4281 21.3881 12.3418 21.4277C12.271 21.4596 12.196 21.4812 12.119 21.4918C12.0795 21.4973 12.0398 21.5 12 21.5ZM7.27032 8.56283L12 18.7735L16.7296 8.56283H7.27032ZM18.517 8.56283L15.2946 15.5197L21.128 8.56283H18.517ZM2.86848 8.56283L8.70182 15.5197L5.48298 8.56283H2.86848ZM19.196 3.993L18.8926 6.96917H21.2983L19.196 3.993ZM12 2.6805L8.35065 6.96917H15.6493L12 2.6805ZM4.80398 3.993L2.70165 6.96917H5.10732L4.80398 3.993ZM13.7231 2.21617L17.3095 6.43133L17.7166 2.49617L13.7231 2.21617ZM10.2745 2.21617L6.28332 2.49617L6.68582 6.43133L10.2745 2.21617Z" fill="#2E3A59"/>
</svg>
