<svg width="20" height="16" viewBox="0 0 20 16" fill="none" xmlns="http://www.w3.org/2000/svg">
<path d="M1.47368 0.533333V0C1.34806 0 1.22757 0.0561904 1.13874 0.15621C1.04991 0.256229 1 0.391885 1 0.533333H1.47368ZM18.5263 0.533333H19C19 0.391885 18.9501 0.256229 18.8613 0.15621C18.7724 0.0561904 18.6519 0 18.5263 0V0.533333ZM1.47368 1.06667H18.5263V0H1.47368V1.06667ZM18.0526 0.533333V13.3333H19V0.533333H18.0526ZM16.6316 14.9333H3.36842V16H16.6316V14.9333ZM1.94737 13.3333V0.533333H1V13.3333H1.94737ZM3.36842 14.9333C2.99153 14.9333 2.63008 14.7648 2.36359 14.4647C2.09709 14.1646 1.94737 13.7577 1.94737 13.3333H1C1 14.0406 1.24953 14.7189 1.69369 15.219C2.13786 15.719 2.74028 16 3.36842 16V14.9333ZM18.0526 13.3333C18.0526 13.7577 17.9029 14.1646 17.6364 14.4647C17.3699 14.7648 17.0085 14.9333 16.6316 14.9333V16C17.2597 16 17.8621 15.719 18.3063 15.219C18.7505 14.7189 19 14.0406 19 13.3333H18.0526Z" fill="black"/>
<path d="M1.47369 0.533325L10 10.1333L18.5263 0.533325" stroke="black" stroke-linecap="round" stroke-linejoin="round"/>
</svg>
