<svg width="50" height="49" viewBox="0 0 50 49" fill="none" xmlns="http://www.w3.org/2000/svg">
<path d="M9.61035 34.4273H11.212V36.0283H9.61035V34.4273Z" fill="#712F6C"/>
<path d="M12.813 34.4273H14.414V36.0283H12.813V34.4273Z" fill="#712F6C"/>
<path d="M6.40833 34.4273H8.00936V36.0283H6.40833V34.4273Z" fill="#712F6C"/>
<path d="M8.0094 7.20552H9.61043V10.4082H11.2121V7.20552H12.8131V5.60449H8.0094V7.20552Z" fill="#712F6C"/>
<path d="M32.8274 15.2119C29.7373 15.2119 27.2235 17.7257 27.2235 20.8164C27.2235 23.9071 29.7373 26.4209 32.8274 26.4209C35.9176 26.4209 38.4313 23.9071 38.4313 20.8164C38.4313 17.7257 35.9176 15.2119 32.8274 15.2119ZM32.8274 24.8193C30.6201 24.8193 28.8245 23.0237 28.8245 20.8164C28.8245 18.6091 30.6201 16.8129 32.8274 16.8129C35.0347 16.8129 36.8303 18.6091 36.8303 20.8164C36.8303 23.0237 35.0347 24.8193 32.8274 24.8193Z" fill="#712F6C"/>
<path d="M32.8275 18.4146C31.503 18.4146 30.4257 19.4919 30.4257 20.8164C30.4257 22.1409 31.503 23.2182 32.8275 23.2182C34.1514 23.2182 35.2294 22.1409 35.2294 20.8164C35.2294 19.4919 34.1514 18.4146 32.8275 18.4146ZM32.8275 21.6172C32.3864 21.6172 32.0267 21.2575 32.0267 20.8164C32.0267 20.3753 32.3864 20.0156 32.8275 20.0156C33.2686 20.0156 33.6283 20.3753 33.6283 20.8164C33.6283 21.2575 33.2686 21.6172 32.8275 21.6172Z" fill="#712F6C"/>
<mask id="mask0_234_352" style="mask-type:luminance" maskUnits="userSpaceOnUse" x="0" y="0" width="50" height="49">
<path d="M0 0H49.6433V48.8389H0V0Z" fill="white"/>
</mask>
<g mask="url(#mask0_234_352)">
<path d="M48.0382 0.800216H24.0209C23.1381 0.800216 22.4199 1.51844 22.4199 2.40185V7.67477L20.7626 9.33207C20.2221 4.09684 15.7871 0 10.4113 0C4.67269 0 0.00366211 4.66903 0.00366211 10.4082C0.00366211 13.9466 1.83273 17.2624 4.80735 19.1687V27.2217C4.80735 28.2889 5.51181 29.1855 6.47662 29.4967C6.79922 31.3832 8.43556 32.8262 10.4113 32.8262C12.387 32.8262 14.0233 31.3832 14.3459 29.4967C15.3107 29.1855 16.0152 28.2889 16.0152 27.2217V19.1687C17.3331 18.3242 18.4092 17.193 19.2178 15.8978V37.6299H4.00654C1.79921 37.6299 0.00366211 39.4255 0.00366211 41.6328V44.8355C0.00366211 47.0428 1.79921 48.8389 4.00654 48.8389H41.0224L48.4805 45.1096C49.1951 44.7523 49.6398 44.034 49.6398 43.2344V2.40185C49.6398 1.51844 48.9216 0.800216 48.0382 0.800216ZM24.0209 2.40185H48.0382V41.1384L46.4372 40.3376V4.00288H26.0912L24.0209 6.07315V2.40185ZM39.4848 18.0614C39.8744 18.9981 40.6722 19.6738 41.6341 19.9162V21.713C40.6788 21.9542 39.8756 22.6305 39.4848 23.5714C39.097 24.5086 39.1813 25.5507 39.6919 26.4065L38.4212 27.6772C37.5731 27.1702 36.5263 27.0829 35.5855 27.4737C34.6482 27.8627 33.9713 28.6612 33.7283 29.6236H31.9309C31.6897 28.6683 31.0134 27.8651 30.0725 27.4743C29.1329 27.0847 28.0896 27.1708 27.2368 27.6802L25.9673 26.4095C26.4742 25.562 26.5622 24.5146 26.1708 23.5714C25.7818 22.6347 24.9833 21.959 24.0221 21.7166V19.9198C24.9768 19.6786 25.78 19.0023 26.1708 18.0614C26.5598 17.1224 26.4742 16.0779 25.9649 15.2257L27.2356 13.955C28.0849 14.4619 29.1335 14.5499 30.0773 14.1567C31.0116 13.7683 31.6855 12.9716 31.9285 12.0104H33.7241C33.9653 12.9651 34.6416 13.7683 35.5825 14.1591C36.5191 14.5475 37.5606 14.4631 38.417 13.9526L39.6883 15.2233C39.1825 16.0702 39.0946 17.1182 39.4848 18.0614ZM25.622 6.7363V10.4082H21.9507L25.622 6.7363ZM10.4113 31.2246C9.36865 31.2246 8.48823 30.5531 8.15665 29.6236H12.6647C12.3343 30.5531 11.4533 31.2246 10.4113 31.2246ZM14.4141 27.2217C14.4141 27.6628 14.0544 28.0219 13.6133 28.0219H7.2086C6.7675 28.0219 6.40839 27.6628 6.40839 27.2217V26.4209H14.4141V27.2217ZM6.40839 24.8193V23.2182H14.4141V24.8193H6.40839ZM14.8133 18.0267L14.4141 18.2583V21.6172H12.8131V14.1052L16.0152 12.5042V8.80657H14.4141V11.5149L11.2121 13.1159V21.6172H9.61045V13.1159L6.40839 11.5149V8.80657H4.80735V12.5042L8.00942 14.1052V21.6172H6.40839V18.2583L6.00858 18.0267C3.29251 16.4526 1.60469 13.5337 1.60469 10.4082C1.60469 5.55244 5.5555 1.60103 10.4113 1.60103C15.267 1.60103 19.2178 5.55244 19.2178 10.4082C19.2178 13.5337 17.53 16.4526 14.8133 18.0267ZM20.8189 12.0092H26.9153L24.3357 14.5888L23.7851 15.17L24.3507 15.7362C24.8014 16.1869 24.9343 16.859 24.6913 17.4473C24.4471 18.0351 23.8779 18.4146 23.2207 18.4146H22.4199V22.4174L22.4414 23.2182H23.2423C23.8779 23.2182 24.4471 23.5977 24.6913 24.1854C24.9355 24.7738 24.8026 25.4459 24.3435 25.9038L23.7624 26.4694L26.5999 29.3081L27.1811 29.8588L27.7479 29.2926C28.198 28.8419 28.8683 28.709 29.4584 28.9526C30.0462 29.1974 30.4256 29.7666 30.4256 30.4238V31.2246H34.4285L35.2293 31.2054V30.4046C35.2293 29.7678 35.6094 29.1974 36.1989 28.9532C36.7849 28.7084 37.4558 28.8419 37.9221 29.3087L38.4883 29.8749L41.3192 27.044L41.8699 26.4622L41.3037 25.8966C40.853 25.4459 40.7201 24.7738 40.9637 24.1854C41.2079 23.5977 41.7771 23.2182 42.4127 23.2182H43.2351V19.2154L43.2135 18.4146H42.4127C41.7771 18.4146 41.2079 18.0351 40.9637 17.4473C40.7195 16.859 40.8524 16.1869 41.3186 15.7212L41.8842 15.155L39.0533 12.3246L38.4721 11.774L37.9065 12.3402C37.4558 12.7897 36.7837 12.9238 36.1953 12.6802C35.6088 12.4354 35.2293 11.8662 35.2293 11.209V10.4082H31.2265L30.4256 10.4345V11.2353C30.4256 11.8686 30.048 12.4348 29.4632 12.6772C28.8719 12.922 28.1968 12.7891 27.7323 12.3246L27.2236 11.8153V5.60451H44.8361V39.5368L41.0224 37.6299H20.8189V12.0092ZM40.0324 42.4336H11.2121V39.2309H40.0324V42.4336ZM9.61045 47.2373H8.00942V39.2309H9.61045V47.2373ZM11.2121 44.0346H40.0324V47.2373H11.2121V44.0346ZM41.6341 39.7259L44.8361 41.327V45.1413L41.6341 46.7429V39.7259ZM1.60469 44.8355V41.6328C1.60469 40.3089 2.68262 39.2309 4.00654 39.2309H6.40839V47.2373H4.00654C2.68262 47.2373 1.60469 46.16 1.60469 44.8355ZM47.7647 43.6767L46.4372 44.3405V42.1278L47.7653 42.7915C47.9334 42.8765 48.0382 43.0453 48.0382 43.2344C48.0382 43.423 47.9334 43.5923 47.7647 43.6767Z" fill="#712F6C"/>
</g>
<path d="M36.8303 7.20554H43.235V8.80657H36.8303V7.20554Z" fill="#712F6C"/>
<path d="M32.0266 7.20554H35.2293V8.80657H32.0266V7.20554Z" fill="#712F6C"/>
<path d="M36.8303 31.2246H43.235V32.8262H36.8303V31.2246Z" fill="#712F6C"/>
<path d="M35.2292 34.4273H43.235V36.0283H35.2292V34.4273Z" fill="#712F6C"/>
</svg>
