<svg width="19" height="17" viewBox="0 0 19 17" fill="none" xmlns="http://www.w3.org/2000/svg">
<path d="M0.5 0.566667V0C0.367392 0 0.240215 0.0597023 0.146447 0.165973C0.0526785 0.272244 0 0.416377 0 0.566667H0.5ZM18.5 0.566667H19C19 0.416377 18.9473 0.272244 18.8536 0.165973C18.7598 0.0597023 18.6326 0 18.5 0V0.566667ZM0.5 1.13333H18.5V0H0.5V1.13333ZM18 0.566667V14.1667H19V0.566667H18ZM16.5 15.8667H2.5V17H16.5V15.8667ZM1 14.1667V0.566667H0V14.1667H1ZM2.5 15.8667C2.10218 15.8667 1.72064 15.6876 1.43934 15.3687C1.15804 15.0499 1 14.6175 1 14.1667H0C0 14.9181 0.263392 15.6388 0.732233 16.1701C1.20107 16.7015 1.83696 17 2.5 17V15.8667ZM18 14.1667C18 14.6175 17.842 15.0499 17.5607 15.3687C17.2794 15.6876 16.8978 15.8667 16.5 15.8667V17C17.163 17 17.7989 16.7015 18.2678 16.1701C18.7366 15.6388 19 14.9181 19 14.1667H18Z" fill="black"/>
<path d="M0.5 0.56665L9.5 10.7667L18.5 0.56665" stroke="black" stroke-linecap="round" stroke-linejoin="round"/>
</svg>
