<svg width="50" height="50" viewBox="0 0 50 50" fill="none" xmlns="http://www.w3.org/2000/svg">
<path d="M27.4949 25.9002C29.1414 25.9002 30.5528 24.5226 30.5528 22.74C30.5528 21.0385 29.2198 19.5792 27.4949 19.5792C25.77 19.5792 24.437 20.9568 24.437 22.74C24.437 24.4416 25.8484 25.9002 27.4949 25.9002ZM27.4949 20.7948C28.5144 20.7948 29.3765 21.6864 29.3765 22.74C29.3765 23.7936 28.5144 24.6846 27.4949 24.6846C26.4754 24.6846 25.6126 23.7936 25.6126 22.74C25.6126 21.6864 26.4754 20.7948 27.4949 20.7948Z" fill="#712F6C"/>
<path d="M6.40124 25.0902C7.81263 25.0902 8.91051 23.9556 8.91051 22.497C8.91051 21.0385 7.81263 19.9039 6.40124 19.9039C4.98985 19.9039 3.89197 21.0385 3.89197 22.497C3.89197 23.8746 4.98985 25.0902 6.40124 25.0902ZM6.40124 21.0385C7.10725 21.0385 7.73425 21.6864 7.73425 22.4161C7.73425 23.145 7.10725 23.7936 6.40124 23.7936C5.69587 23.7936 5.06823 23.145 5.06823 22.4161C5.06823 21.6864 5.61749 21.0385 6.40124 21.0385Z" fill="#712F6C"/>
<path d="M40.3548 7.82893C41.7662 7.82893 42.864 6.695 42.864 5.23576C42.864 3.77718 41.7662 2.64258 40.3548 2.64258C38.9434 2.64258 37.8455 3.77718 37.8455 5.23576C37.7671 6.695 38.9434 7.82893 40.3548 7.82893ZM40.3548 3.85817C41.0608 3.85817 41.6878 4.5068 41.6878 5.23576C41.6878 5.96538 41.0608 6.61334 40.3548 6.61334C39.6494 6.61334 39.0218 5.96538 39.0218 5.23576C38.9434 4.5068 39.571 3.85817 40.3548 3.85817Z" fill="#712F6C"/>
<mask id="mask0_233_302" style="mask-type:luminance" maskUnits="userSpaceOnUse" x="0" y="0" width="48" height="50">
<path d="M0 0H47.3053V50H0V0Z" fill="white"/>
</mask>
<g mask="url(#mask0_233_302)">
<path d="M40.6811 36.4263C39.5832 36.4263 38.4853 36.7502 37.5448 37.2369L33.0749 31.0779C33.31 30.9159 33.4668 30.6723 33.7025 30.5103C33.7809 30.4293 35.8977 28.4847 36.0544 25.0809C36.2118 22.4068 35.1923 19.6516 32.9965 17.869L36.9172 12.5207C38.0934 13.4116 39.5832 13.8173 41.0729 13.7356C43.6612 13.5736 45.2294 11.7911 45.3077 11.7101C46.4056 10.5755 47.111 9.0359 47.1894 7.33433C47.4251 3.44456 44.445 0.0407715 40.6027 0.0407715C34.7998 0.0407715 31.8202 7.33433 35.8977 11.6291L31.8986 17.0584C30.644 16.3288 29.2326 15.8428 27.7428 15.8428C23.4297 15.8428 19.8231 19.3276 19.5874 23.8654H13.2358C13.1575 20.2186 10.2563 17.2204 6.64915 17.2204C-0.172654 17.2204 -2.52518 26.8642 3.66963 30.1053C7.66866 32.2125 12.4521 29.6193 13.1575 25.0809H19.5874C19.8231 28.0791 21.548 30.5913 24.0573 31.8879C25.3119 32.5365 26.8017 32.8605 28.2915 32.7795C29.7028 32.6985 30.9575 32.2935 32.0554 31.5639L36.4469 37.7229C29.3893 43.6382 38.7994 54.5785 45.2294 47.7716C45.3077 47.6906 46.9543 46.1504 47.111 43.3952C47.5035 39.7484 44.5234 36.4263 40.6811 36.4263ZM40.9946 12.5207C39.5048 12.6017 38.1718 12.1151 36.9955 11.0615C37.1523 9.84586 38.0151 8.9549 39.1913 8.79291L40.1324 10.6565C40.3676 11.0615 40.9946 11.0615 41.152 10.6565L42.0925 8.79291C43.2687 8.9549 44.1315 9.92751 44.2882 11.0615C43.4255 11.9531 42.3276 12.439 40.9946 12.5207ZM40.6811 1.41836C43.818 1.41836 46.2489 4.17353 46.0915 7.41533C46.0131 8.30628 45.6996 9.19789 45.2294 10.0085C44.6801 8.63092 43.3471 7.57732 41.779 7.57732C41.5438 7.57732 41.3871 7.73931 41.2303 7.9013L40.6811 9.0359L40.1324 7.9013C40.0541 7.65832 39.8183 7.57732 39.5832 7.57732C38.0151 7.57732 36.682 8.54927 36.1334 10.0085C33.7809 6.28073 36.3685 1.41836 40.6811 1.41836ZM6.72753 18.598C9.86443 18.598 12.2953 21.3532 12.1379 24.595C12.0596 25.4859 11.7461 26.3775 11.2758 27.1881C10.7266 25.8106 9.39355 24.757 7.82541 24.757C7.59029 24.757 7.43354 24.919 7.27679 25.0809L6.72753 26.2155L6.1789 25.0809C6.10053 24.838 5.8654 24.757 5.62964 24.757C4.0615 24.757 2.72849 25.7296 2.17987 27.1881C-0.0942788 23.4604 2.49337 18.598 6.72753 18.598ZM3.04199 28.3227C3.19874 27.1072 4.0615 26.2155 5.23776 26.0536L6.1789 27.9171C6.41403 28.3227 7.04102 28.3227 7.19841 27.9171L8.13891 26.0536C9.31517 26.2155 10.1779 27.1881 10.3347 28.3227C8.29566 30.2673 5.15939 30.2673 3.04199 28.3227ZM27.8212 17.2204C31.977 17.2204 35.1139 20.8672 34.8788 24.9999C34.7998 26.2965 34.3295 27.5931 33.6241 28.6467C32.9965 26.7825 31.2716 25.4049 29.2326 25.4049C28.9975 25.4049 28.8407 25.5676 28.684 25.7296L27.8212 27.5121L26.9585 25.7296C26.8801 25.4859 26.645 25.4049 26.4098 25.4049C24.3708 25.4049 22.6459 26.7825 22.0183 28.6467C18.8036 23.8654 22.175 17.2204 27.8212 17.2204ZM24.9984 31.1589L25.1552 30.1863C25.2336 29.8623 24.9984 29.5383 24.6843 29.5383C24.3708 29.4573 24.0573 29.7003 24.0573 30.0243L23.9789 30.5103C23.9006 30.5103 23.9006 30.4293 23.8222 30.4293C23.7438 30.3483 23.5871 30.2673 23.5087 30.1863C23.3513 30.0243 23.1945 29.9433 23.0378 29.7813C23.1945 28.0791 24.4492 26.7825 26.0963 26.6205L27.351 29.1327C27.5861 29.5383 28.2131 29.5383 28.3698 29.1327L29.6245 26.6205C31.2716 26.7825 32.5263 28.1608 32.683 29.7813C32.5263 29.9433 32.1337 30.2673 31.7419 30.5103C31.6635 30.3483 31.7419 29.3757 31.0359 29.4573C30.7224 29.5383 30.4872 29.7813 30.5656 30.1053L30.7224 31.0779C29.9386 31.4019 29.1542 31.6449 28.3698 31.6449C27.1936 31.8879 26.0963 31.6449 24.9984 31.1589ZM36.9955 47.285C37.1523 46.0694 38.0151 45.1784 39.1913 45.0158L40.1324 46.88C40.3676 47.285 40.9946 47.285 41.152 46.88L42.0925 45.0158C43.2687 45.1784 44.1315 46.1504 44.2882 47.285C42.2492 49.3112 39.1129 49.3112 36.9955 47.285ZM46.0131 43.5572C45.9347 44.4488 45.6212 45.3404 45.151 46.1504C44.6017 44.7728 43.2687 43.7198 41.7006 43.7198C41.4655 43.7198 41.3087 43.8818 41.152 44.0438L40.6027 45.1784L40.0541 44.0438C39.9757 43.8008 39.7399 43.7198 39.5048 43.7198C37.9367 43.7198 36.6037 44.6918 36.0544 46.1504C34.7214 43.9628 34.9572 41.1266 36.8388 39.1814C37.8583 38.1278 39.1913 37.5609 40.6811 37.5609C43.818 37.6419 46.2489 40.397 46.0131 43.5572Z" fill="#712F6C"/>
</g>
<path d="M40.3548 38.8661C38.9434 38.8661 37.8455 40.0007 37.8455 41.4592C37.8455 42.9178 38.9434 44.0524 40.3548 44.0524C41.7662 44.0524 42.8641 42.9178 42.8641 41.4592C42.8641 40.0007 41.6878 38.8661 40.3548 38.8661ZM40.3548 42.8368C39.6494 42.8368 39.0218 42.1889 39.0218 41.4592C39.0218 40.7303 39.6494 40.0817 40.3548 40.0817C41.0608 40.0817 41.6878 40.7303 41.6878 41.4592C41.6878 42.2699 41.0608 42.8368 40.3548 42.8368Z" fill="#712F6C"/>
<path d="M19.2611 13.8259C22.2413 13.8259 24.6722 11.3137 24.6722 8.23457C24.6722 5.15476 22.2413 2.64258 19.2611 2.64258C16.2816 2.64258 13.8507 5.15476 13.8507 8.23457C13.8507 11.3137 16.2816 13.8259 19.2611 13.8259ZM19.2611 3.85817C21.6136 3.85817 23.4959 5.80338 23.4959 8.23457C23.4959 10.6658 21.6136 12.6103 19.2611 12.6103C16.9092 12.6103 15.027 10.6658 15.027 8.23457C15.027 5.80338 16.9092 3.85817 19.2611 3.85817Z" fill="#712F6C"/>
<path d="M18.2422 35.8679C15.2621 35.8679 12.8312 38.3801 12.8312 41.4593C12.8312 44.5391 15.2621 47.0512 18.2422 47.0512C21.2218 47.0512 23.6526 44.5391 23.6526 41.4593C23.6526 38.3801 21.2218 35.8679 18.2422 35.8679ZM18.2422 45.8357C15.8897 45.8357 14.0074 43.8904 14.0074 41.4593C14.0074 39.0281 15.8897 37.0835 18.2422 37.0835C20.5941 37.0835 22.4764 39.0281 22.4764 41.4593C22.4764 43.8904 20.5941 45.8357 18.2422 45.8357Z" fill="#712F6C"/>
<mask id="mask1_233_302" style="mask-type:luminance" maskUnits="userSpaceOnUse" x="39" y="19" width="11" height="12">
<path d="M39.1492 19.6392H50V30.9338H39.1492V19.6392Z" fill="white"/>
</mask>
<g mask="url(#mask1_233_302)">
<path d="M44.5896 19.6609C41.6095 19.6609 39.1786 22.1724 39.1786 25.2522C39.1786 28.3313 41.6095 30.8435 44.5896 30.8435C47.5692 30.8435 50.0001 28.3313 50.0001 25.2522C50.0001 22.1724 47.5692 19.6609 44.5896 19.6609ZM44.5896 29.6279C42.2371 29.6279 40.3548 27.6834 40.3548 25.2522C40.3548 22.821 42.2371 20.8758 44.5896 20.8758C46.9415 20.8758 48.8238 22.821 48.8238 25.2522C48.8238 27.6834 46.9415 29.6279 44.5896 29.6279Z" fill="#712F6C"/>
</g>
</svg>
