<svg width="50" height="50" viewBox="0 0 50 50" fill="none" xmlns="http://www.w3.org/2000/svg">
<path d="M48.3276 35.6294V33.3295H49.1609C49.3907 33.3311 49.6108 33.2375 49.7691 33.0711C49.9107 32.9129 49.9908 32.7086 49.9941 32.4963L48.5026 4.16621C48.3606 1.87319 46.4589 0.0858765 44.1614 0.0858765C41.8639 0.0858765 39.9623 1.87319 39.8203 4.16621L38.3288 32.4963C38.3219 32.7233 38.4024 32.9438 38.5538 33.113C38.719 33.264 38.9382 33.3421 39.162 33.3295H39.9953V35.6294L38.4203 38.7874C38.3015 39.023 38.3015 39.3013 38.4203 39.5373L43.4197 49.5361C43.4604 49.6281 43.5202 49.7102 43.5947 49.7778C43.6919 49.8677 43.8091 49.9336 43.9364 49.9694H44.3946C44.5223 49.9336 44.6395 49.8677 44.7363 49.7778C44.8112 49.7102 44.8706 49.6281 44.9113 49.5361L49.9107 39.5373C50.0295 39.3013 50.0295 39.023 49.9107 38.7874L48.3276 35.6294ZM40.0368 31.663L40.3871 24.9971H47.9358L48.3276 31.663H40.0368ZM41.4868 4.20812C41.4868 2.73083 42.6841 1.53306 44.1614 1.53306C45.6387 1.53306 46.8361 2.73083 46.8361 4.20812L47.8443 23.3726H40.4786L40.5701 21.7061H45.2111C45.6717 21.7061 46.0444 21.333 46.0444 20.8729C46.0444 20.4123 45.6717 20.0396 45.2111 20.0396H40.6535L41.4868 4.20812ZM46.6611 33.3295V34.996H41.6617V33.3295H46.6611ZM44.9947 45.6283V39.9954H45.8279C46.2881 39.9954 46.6611 39.6223 46.6611 39.1621C46.6611 38.702 46.2881 38.3289 45.8279 38.3289H42.495C42.0348 38.3289 41.6617 38.702 41.6617 39.1621C41.6617 39.6223 42.0348 39.9954 42.495 39.9954H43.3282V45.6283L40.0953 39.1621L41.3452 36.6624H46.9777L48.2275 39.1621L44.9947 45.6283Z" fill="#712F6C"/>
<path d="M28.3301 10.8321C28.7903 10.8321 29.1634 10.459 29.1634 9.99888C29.1634 9.53873 28.7903 9.16565 28.3301 9.16565H6.666C6.20585 9.16565 5.83276 9.53873 5.83276 9.99888V13.3318C5.83276 13.792 6.20585 14.1651 6.666 14.1651H28.3301C28.7903 14.1651 29.1634 13.792 29.1634 13.3318C29.1634 12.8717 28.7903 12.4986 28.3301 12.4986H7.49924V10.8321H28.3301Z" fill="#712F6C"/>
<path d="M29.1633 18.3312C29.1633 17.8711 28.7902 17.498 28.3301 17.498H9.99889C9.53873 17.498 9.16565 17.8711 9.16565 18.3312C9.16565 18.7914 9.53873 19.1645 9.99889 19.1645H28.3301C28.7902 19.1645 29.1633 18.7914 29.1633 18.3312Z" fill="#712F6C"/>
<path d="M4.99951 22.4974C4.99951 22.9575 5.3726 23.3306 5.83275 23.3306H19.1645C19.6247 23.3306 19.9978 22.9575 19.9978 22.4974C19.9978 22.0372 19.6247 21.6641 19.1645 21.6641H5.83275C5.3726 21.6641 4.99951 22.0372 4.99951 22.4974Z" fill="#712F6C"/>
<path d="M24.1639 21.6641C23.7038 21.6641 23.3307 22.0372 23.3307 22.4974C23.3307 22.9575 23.7038 23.3306 24.1639 23.3306H27.4969C27.957 23.3306 28.3301 22.9575 28.3301 22.4974C28.3301 22.0372 27.957 21.6641 27.4969 21.6641H24.1639Z" fill="#712F6C"/>
<path d="M16.6648 26.6635C16.6648 26.2034 16.2917 25.8303 15.8316 25.8303H5.83275C5.3726 25.8303 4.99951 26.2034 4.99951 26.6635C4.99951 27.1237 5.3726 27.4968 5.83275 27.4968H15.8316C16.2917 27.4968 16.6648 27.1237 16.6648 26.6635Z" fill="#712F6C"/>
<path d="M15.8316 30.8298C15.8316 30.3697 15.4585 29.9966 14.9983 29.9966H5.83275C5.3726 29.9966 4.99951 30.3697 4.99951 30.8298C4.99951 31.29 5.3726 31.6631 5.83275 31.6631H14.9983C15.4585 31.6631 15.8316 31.29 15.8316 30.8298Z" fill="#712F6C"/>
<path d="M5.83275 34.1627C5.3726 34.1627 4.99951 34.5358 4.99951 34.996C4.99951 35.4561 5.3726 35.8292 5.83275 35.8292H11.6654C12.1256 35.8292 12.4986 35.4561 12.4986 34.996C12.4986 34.5358 12.1256 34.1627 11.6654 34.1627H5.83275Z" fill="#712F6C"/>
<path d="M32.4962 0H2.49971C1.11925 0 0 1.11925 0 2.49971V40.8286C0 42.209 1.11925 43.3283 2.49971 43.3283H16.6647C17.1249 43.3283 17.498 42.9552 17.498 42.4951C17.498 42.0349 17.1249 41.6618 16.6647 41.6618H2.49971C2.03956 41.6618 1.66647 41.2887 1.66647 40.8286V7.49913H33.3295V40.8286C33.3295 41.2887 32.9564 41.6618 32.4962 41.6618H29.9965C29.5364 41.6618 29.1633 42.0349 29.1633 42.4951C29.1633 42.9552 29.5364 43.3283 29.9965 43.3283H32.4962C33.8767 43.3283 34.9959 42.209 34.9959 40.8286V2.49971C34.9959 1.11925 33.8767 0 32.4962 0V0ZM1.66647 5.83266V2.49971C1.66647 2.03956 2.03956 1.66647 2.49971 1.66647H32.4962C32.9564 1.66647 33.3295 2.03956 33.3295 2.49971V5.83266H1.66647Z" fill="#712F6C"/>
<path d="M23.3305 30.8297C21.9501 30.8297 20.8308 31.949 20.8308 33.3294C20.8308 34.7099 21.9501 35.8291 23.3305 35.8291C24.711 35.8291 25.8302 34.7099 25.8302 33.3294C25.8302 31.949 24.711 30.8297 23.3305 30.8297ZM23.3305 34.1627C22.8704 34.1627 22.4973 33.7896 22.4973 33.3294C22.4973 32.8693 22.8704 32.4962 23.3305 32.4962C23.7907 32.4962 24.1638 32.8693 24.1638 33.3294C24.1638 33.7896 23.7907 34.1627 23.3305 34.1627Z" fill="#712F6C"/>
<path d="M29.9964 33.3294C29.9952 32.4034 29.4826 31.5535 28.6632 31.1214C28.9358 30.2361 28.6965 29.2731 28.0419 28.6181C27.3869 27.9634 26.4238 27.7242 25.5385 27.9968C25.1048 27.1798 24.2557 26.6688 23.3305 26.6688C22.4053 26.6688 21.5562 27.1798 21.1225 27.9968C20.2372 27.7242 19.2742 27.9634 18.6192 28.6181C17.9645 29.2731 17.7253 30.2361 17.9979 31.1214C17.1805 31.5551 16.6699 32.4042 16.6699 33.3294C16.6699 34.2546 17.1805 35.1041 17.9979 35.5374C17.7253 36.4207 17.9625 37.3821 18.6143 38.0371C18.777 38.1995 18.9621 38.337 19.1643 38.4456V49.1609C19.166 49.4974 19.3698 49.7997 19.681 49.9274C19.9911 50.058 20.3495 49.9889 20.5891 49.7525L23.3305 47.003L26.0719 49.7525C26.229 49.9087 26.4421 49.9954 26.6635 49.9942C26.7729 49.997 26.8811 49.9742 26.98 49.9274C27.2912 49.7997 27.4951 49.4974 27.4967 49.1609V38.4538C27.6989 38.3451 27.884 38.2076 28.0468 38.0457C28.6986 37.3902 28.9358 36.4293 28.6632 35.546C29.485 35.1123 29.9985 34.2587 29.9964 33.3294V33.3294ZM23.9221 45.2364C23.7659 45.0786 23.5527 44.9899 23.3305 44.9899C23.1084 44.9899 22.8952 45.0786 22.739 45.2364L20.8308 47.1527V38.7373L21.1225 38.6621C21.5562 39.4794 22.4053 39.99 23.3305 39.99C24.2557 39.99 25.1048 39.4794 25.5385 38.6621L25.8302 38.7373V47.1527L23.9221 45.2364ZM27.4967 34.1627H27.3551C27.0158 34.161 26.709 34.3653 26.5801 34.6794C26.4519 34.9914 26.5243 35.3499 26.7636 35.5875L26.8636 35.6876C27.1867 36.0126 27.1867 36.5375 26.8636 36.8626C26.7717 36.959 26.657 37.0306 26.53 37.0709H26.4051C26.1427 37.1115 25.8766 37.0249 25.6887 36.8373L25.5886 36.7372C25.3501 36.4972 24.9901 36.4248 24.6776 36.5546C24.3647 36.6843 24.1617 36.9907 24.1638 37.3292V37.4956C24.1638 37.9558 23.7907 38.3289 23.3305 38.3289C22.8704 38.3289 22.4973 37.9558 22.4973 37.4956V37.354C22.4989 37.0147 22.2947 36.7079 21.9806 36.579C21.8801 36.5391 21.7723 36.5196 21.6641 36.5208C21.4427 36.5196 21.2295 36.6066 21.0725 36.7625L20.9724 36.8626C20.7844 37.0501 20.5184 37.1368 20.2559 37.0957H20.131C20.0041 37.0558 19.8894 36.9842 19.7974 36.8874C19.4744 36.5623 19.4744 36.0375 19.7974 35.7124L19.906 35.6127C20.1453 35.3747 20.2177 35.0162 20.0891 34.7042C19.9601 34.3905 19.6538 34.1859 19.3145 34.1879H19.1643C18.7042 34.1879 18.3311 33.8148 18.3311 33.3547C18.3311 32.8941 18.7042 32.5214 19.1643 32.5214H19.3059C19.6452 32.523 19.952 32.3184 20.081 32.0047C20.2091 31.6927 20.1367 31.3342 19.8975 31.0962L19.7974 30.9965C19.4707 30.6719 19.4691 30.1442 19.7933 29.8175C20.118 29.4908 20.6457 29.4887 20.9724 29.8134L21.0725 29.9216C21.3101 30.1609 21.6689 30.2333 21.9806 30.1047C22.2947 29.9757 22.4989 29.6694 22.4973 29.3301V29.1632C22.4973 28.7031 22.8704 28.33 23.3305 28.33C23.7907 28.33 24.1638 28.7031 24.1638 29.1632V29.3048C24.1621 29.6446 24.3664 29.9509 24.6805 30.0799C24.9921 30.208 25.351 30.136 25.5886 29.8964L25.6887 29.7967C26.0129 29.47 26.541 29.468 26.8677 29.7922C27.1944 30.1169 27.196 30.6446 26.8718 30.9713L26.7636 31.0714C26.5243 31.309 26.4519 31.6678 26.5801 31.9795C26.709 32.2936 27.0158 32.4978 27.3551 32.4962H27.4967C27.9569 32.4962 28.3299 32.8693 28.3299 33.3294C28.3299 33.7896 27.9569 34.1627 27.4967 34.1627V34.1627Z" fill="#712F6C"/>
</svg>
