<svg width="22" height="21" viewBox="0 0 22 21" fill="none" xmlns="http://www.w3.org/2000/svg">
<path d="M11.1953 13.0398C11.5859 13.014 11.9419 12.8448 12.173 12.575L15.6857 8.45152C15.7934 8.32505 15.7773 8.15047 15.6467 8.03961C15.5161 7.92907 15.3106 7.91537 15.1616 8.00648L10.3047 10.9901C9.98805 11.1857 9.78884 11.4881 9.75845 11.8197C9.72806 12.1513 9.8695 12.4759 10.146 12.7107C10.3977 12.9248 10.7373 13.0433 11.0903 13.0433C11.1252 13.0433 11.1601 13.042 11.1953 13.0398ZM10.5065 11.8694C10.5197 11.7238 10.6075 11.591 10.7455 11.5056L13.7082 9.68563L11.5656 12.2007C11.4643 12.3189 11.3079 12.3931 11.1364 12.4046C10.9657 12.4141 10.798 12.3638 10.6761 12.2603C10.5553 12.1574 10.493 12.0146 10.5065 11.8694Z" fill="#712F6C"/>
<path d="M19.5991 7.17024C19.5954 7.16355 19.5954 7.15655 19.5912 7.14986C19.5867 7.14348 19.5796 7.13998 19.5747 7.13393C19.1954 6.58154 18.7467 6.0677 18.2373 5.60195L19.0431 4.918L19.5736 5.36845L21.1651 4.01678L19.5736 2.66544L17.9818 4.01678L18.5126 4.46755L17.7068 5.15151C17.1583 4.7189 16.5535 4.33758 15.9026 4.01551C15.8955 4.01137 15.8913 4.00531 15.8838 4.00149C15.876 3.99767 15.8677 3.99799 15.8598 3.99448C14.6994 3.4268 13.3957 3.04867 12.0057 2.91009V2.53068H12.5685C13.0858 2.53068 13.5064 2.17357 13.5064 1.73428C13.5064 1.29498 13.0855 0.937866 12.5681 0.937866H9.19159C8.67424 0.937866 8.25368 1.29498 8.25368 1.73428C8.25368 2.17357 8.67424 2.53068 9.19159 2.53068H9.75434V2.89894C9.34916 2.93558 8.94473 2.99165 8.54481 3.06938C8.34297 3.10856 8.21653 3.27963 8.26305 3.45101C8.3092 3.6224 8.51067 3.73008 8.71251 3.69026C9.05766 3.62304 9.40619 3.57239 9.75547 3.5383L10.158 3.51186C10.2811 3.5039 10.3944 3.49816 10.5047 3.4937V4.1235C10.5047 4.29967 10.6724 4.44207 10.8798 4.44207C11.0873 4.44207 11.255 4.29967 11.255 4.1235V3.49593C12.666 3.55104 13.9956 3.87279 15.1778 4.40224L14.8078 4.94603C14.7043 5.09862 14.7658 5.29327 14.9452 5.38119C15.0041 5.41018 15.0686 5.42388 15.1324 5.42388C15.2622 5.42388 15.3882 5.36686 15.4576 5.2646L15.8264 4.72208C17.0003 5.35443 17.9975 6.20117 18.7422 7.19796L18.1033 7.51111C17.9244 7.59903 17.8628 7.79367 17.9668 7.94626C18.0365 8.04852 18.1622 8.10555 18.292 8.10555C18.3558 8.10555 18.4203 8.09185 18.4792 8.06286L19.1196 7.74875C19.7518 8.76688 20.1318 9.91435 20.1885 11.1316H19.4475C19.2401 11.1316 19.0724 11.274 19.0724 11.4501C19.0724 11.6263 19.2401 11.7687 19.4475 11.7687H20.1885C20.1318 12.9859 19.7518 14.1334 19.1196 15.1515L18.4792 14.8374C18.2999 14.7495 18.0703 14.8011 17.9668 14.954C17.8632 15.1066 17.9247 15.3013 18.1041 15.3892L18.743 15.7023C17.9983 16.6991 17.0011 17.5459 15.8272 18.1782L15.4584 17.6357C15.3545 17.4828 15.1245 17.4309 14.9459 17.5191C14.7662 17.607 14.7047 17.802 14.8086 17.9543L15.1785 18.498C13.9964 19.0275 12.6668 19.3492 11.2558 19.4044V18.7774C11.2558 18.6013 11.0881 18.4589 10.8806 18.4589C10.6731 18.4589 10.5054 18.6013 10.5054 18.7774V19.4069C9.90629 19.3894 9.30527 19.3257 8.71363 19.2104C8.51179 19.1693 8.31033 19.2782 8.26418 19.4496C8.21766 19.621 8.34409 19.792 8.54593 19.8312C9.29476 19.9778 10.0597 20.0517 10.8187 20.0517C10.8371 20.0517 10.8547 20.0507 10.8731 20.0504C10.8757 20.0504 10.8776 20.0517 10.8798 20.0517C10.8828 20.0517 10.8855 20.0501 10.8885 20.0501C12.6919 20.0396 14.3839 19.6261 15.8478 18.9119C15.8594 18.9074 15.8718 18.9052 15.8831 18.8994C15.8906 18.8956 15.8947 18.8896 15.9018 18.8854C17.4171 18.1355 18.6833 17.0616 19.5683 15.7759C19.5755 15.7673 19.5845 15.7606 19.5909 15.7511C19.5954 15.7444 19.595 15.7374 19.5987 15.7307C20.4556 14.4692 20.9482 13.0082 20.9482 11.4505C20.9482 9.89269 20.4556 8.43176 19.5991 7.17024ZM19.5732 3.56633L20.1037 4.01678L19.5732 4.46755L19.0424 4.01678L19.5732 3.56633ZM10.5047 2.85594V1.89356H9.19159C9.08842 1.89356 9.00401 1.82188 9.00401 1.73428C9.00401 1.64667 9.08842 1.57499 9.19159 1.57499H12.5681C12.6713 1.57499 12.7557 1.64667 12.7557 1.73428C12.7557 1.82188 12.6713 1.89356 12.5681 1.89356H11.255V2.85594C11.1245 2.85148 10.9999 2.84925 10.8798 2.84925C10.8693 2.84925 10.8573 2.84988 10.8468 2.84988C10.8375 2.84988 10.8281 2.84925 10.8187 2.84925C10.7572 2.84925 10.6956 2.85275 10.6341 2.85371C10.5906 2.85466 10.5497 2.85434 10.5047 2.85594Z" fill="#712F6C"/>
<path d="M7.50345 5.39783H5.62761C5.42014 5.39783 5.25244 5.54023 5.25244 5.71639C5.25244 5.89256 5.42014 6.03495 5.62761 6.03495H7.50345C7.71091 6.03495 7.87861 5.89256 7.87861 5.71639C7.87861 5.54023 7.71091 5.39783 7.50345 5.39783Z" fill="#712F6C"/>
<path d="M7.5033 7.62769H3.75163C3.54416 7.62769 3.37646 7.77008 3.37646 7.94625C3.37646 8.12241 3.54416 8.26481 3.75163 8.26481H7.5033C7.71077 8.26481 7.87847 8.12241 7.87847 7.94625C7.87847 7.77008 7.71077 7.62769 7.5033 7.62769Z" fill="#712F6C"/>
<path d="M7.50329 9.85754H1.87578C1.66831 9.85754 1.50061 9.99994 1.50061 10.1761C1.50061 10.3523 1.66831 10.4947 1.87578 10.4947H7.50329C7.71075 10.4947 7.87845 10.3523 7.87845 10.1761C7.87845 9.99994 7.71075 9.85754 7.50329 9.85754Z" fill="#712F6C"/>
<path d="M7.50335 12.0876H0.375167C0.1677 12.0876 0 12.23 0 12.4062C0 12.5824 0.1677 12.7248 0.375167 12.7248H7.50335C7.71081 12.7248 7.87851 12.5824 7.87851 12.4062C7.87851 12.23 7.71081 12.0876 7.50335 12.0876Z" fill="#712F6C"/>
<path d="M7.50332 14.3175H2.62614C2.41868 14.3175 2.25098 14.4599 2.25098 14.6361C2.25098 14.8122 2.41868 14.9546 2.62614 14.9546H7.50332C7.71079 14.9546 7.87849 14.8122 7.87849 14.6361C7.87849 14.4599 7.71079 14.3175 7.50332 14.3175Z" fill="#712F6C"/>
<path d="M7.50329 16.5475H4.87712C4.66965 16.5475 4.50195 16.6899 4.50195 16.866C4.50195 17.0422 4.66965 17.1846 4.87712 17.1846H7.50329C7.71076 17.1846 7.87846 17.0422 7.87846 16.866C7.87846 16.6899 7.71076 16.5475 7.50329 16.5475Z" fill="#712F6C"/>
</svg>
